<?xml version="1.0" ?>
<svg xmlns="http://www.w3.org/2000/svg" version="1.1" width="256" height="256">
  <defs/>
  <g>
    <path d="M 149.23220825195312 214.7732391357422 L 146.91561889648438 199.95115661621094 C 161.59959411621094 197.8031768798828 167.06642150878906 196.3369598388672 165.3291778564453 192.33047485351562 C 153.41668701171875 164.3179473876953 152.49478149414062 160.54373168945312 149.9916229248047 158.8245391845703 L 92.8572769165039 158.64466857910156 C 89.64450073242188 167.5063934326172 87.2872085571289 172.13473510742188 80.11151885986328 194.4947509765625 L 101.40066528320312 200.97317504882812 C 102.71804809570312 219.30099487304688 96.40503692626953 212.1494598388672 99.61033630371094 214.26461791992188 L 39.139549255371094 214.2474822998047 C 40.91407012939453 192.73326110839844 32.691017150878906 205.58346557617188 55.30990982055664 196.65133666992188 C 60.5776252746582 193.18002319335938 58.84779357910156 187.4287567138672 59.84016799926758 189.86343383789062 L 71.63957214355469 156.74978637695312 L 118.83644104003906 42.63437271118164 L 141.974365234375 42.80535888671875 L 182.25540161132812 147.9263153076172 L 201.5645294189453 197.18040466308594 L 216.409912109375 200.196044921875 C 218.19442749023438 202.24461364746094 216.66177368164062 202.45741271972656 216.59555053710938 214.3833770751953 L 147.61863708496094 214.24452209472656 L 149.23220825195312 214.7732391357422M 126.42623138427734 71.97093963623047 L 125.71676635742188 75.79471588134766 L 98.92742919921875 139.12135314941406 L 144.7061767578125 138.6365966796875 L 121.98214721679688 72.19905853271484 L 126.42623138427734 71.97093963623047" stroke-width="1.0" fill="rgb(0, 0, 0)" opacity="0.9949497"/>
  </g>
</svg>
