<?xml version="1.0" ?>
<svg xmlns="http://www.w3.org/2000/svg" version="1.1" width="256" height="256">
  <defs/>
  <g>
    <path d="M 60.07621383666992 51.02975845336914 C 57.362403869628906 44.79559326171875 59.33949279785156 40.21905517578125 57.98471450805664 40.98553466796875 C 92.8695297241211 40.794673919677734 87.66411590576172 40.3642692565918 79.51510620117188 40.607887268066406 C 90.22016906738281 41.23781204223633 131.16160583496094 40.60618591308594 131.2292938232422 40.90114212036133 C 140.39486694335938 40.54518508911133 163.15457153320312 40.76640319824219 175.79660034179688 50.304683685302734 C 185.5583038330078 54.556087493896484 191.13983154296875 70.48652648925781 190.014404296875 77.39759063720703 C 190.75607299804688 91.04145050048828 185.02853393554688 103.08200073242188 179.26283264160156 107.60521697998047 C 180.37474060058594 107.41905212402344 173.1565704345703 115.65203857421875 153.65611267089844 120.9948501586914 C 153.54505920410156 124.17564392089844 159.09776306152344 121.30203247070312 162.09947204589844 123.79090881347656 C 171.50808715820312 128.1736297607422 186.58482360839844 131.05392456054688 194.5665740966797 143.59063720703125 C 199.91209411621094 151.67276000976562 200.22940063476562 157.65760803222656 200.79588317871094 169.65232849121094 C 200.7135467529297 164.93177795410156 199.63702392578125 175.83294677734375 200.32254028320312 171.7684783935547 C 199.08465576171875 182.12294006347656 193.45883178710938 194.74960327148438 181.94276428222656 203.2275390625 C 168.40895080566406 213.2949676513672 143.16497802734375 218.09414672851562 122.23802185058594 215.6156005859375 C 125.3490219116211 216.05203247070312 117.03472900390625 215.4964599609375 90.65202331542969 215.8406982421875 C 48.16887664794922 215.55538940429688 59.104129791259766 216.66444396972656 57.72705841064453 213.82550048828125 C 57.56602478027344 203.81417846679688 60.2371940612793 207.7825927734375 57.21033477783203 206.90042114257812 L 80.8187026977539 203.4627685546875 L 81.16593170166016 43.796939849853516 C 81.79238891601562 47.104366302490234 82.3156967163086 44.001853942871094 85.44978332519531 55.51987075805664 L 60.07621383666992 51.02975845336914M 132.93077087402344 204.8912353515625 C 139.94810485839844 204.6710205078125 158.3818817138672 198.20680236816406 158.0993194580078 197.47560119628906 C 171.68345642089844 190.11647033691406 174.50314331054688 179.10044860839844 174.3626251220703 171.75985717773438 C 176.0275115966797 159.3815155029297 171.07452392578125 146.2349853515625 163.53118896484375 140.98886108398438 C 154.62171936035156 133.9340362548828 146.83905029296875 133.0395965576172 133.3096466064453 130.73834228515625 L 107.35157012939453 130.8534393310547 L 107.29469299316406 204.11521911621094 C 107.15303802490234 202.21670532226562 105.69568634033203 205.11778259277344 119.2912826538086 204.88119506835938 L 132.93077087402344 204.8912353515625M 96.29798889160156 118.20774841308594 L 115.16704559326172 118.14201354980469 C 139.8693389892578 118.16238403320312 141.6845703125 116.90129852294922 151.7593231201172 110.1375961303711 C 160.42919921875 102.44575500488281 165.17147827148438 95.28169250488281 164.6705780029297 86.29981994628906 C 165.184814453125 80.30184936523438 165.8942413330078 68.33490753173828 154.43748474121094 59.333343505859375 C 148.82437133789062 55.029693603515625 136.3375701904297 51.066287994384766 123.75433349609375 52.39626693725586 C 112.42280578613281 52.75196075439453 102.24656677246094 53.785179138183594 108.78018188476562 50.14735794067383 C 105.0154800415039 60.133602142333984 105.2957763671875 49.68061065673828 107.15011596679688 51.31892013549805 L 107.2962875366211 119.78819274902344 L 108.10047912597656 124.49291229248047 L 96.29798889160156 118.20774841308594" stroke-width="1.0" fill="rgb(0, 0, 0)" opacity="0.995532"/>
  </g>
</svg>
