<?xml version="1.0" ?>
<svg xmlns="http://www.w3.org/2000/svg" version="1.1" width="256" height="256">
  <defs/>
  <g>
    <path d="M 82.62069702148438 120.60914611816406 C 81.97979736328125 130.12728881835938 80.40736389160156 148.98617553710938 86.70487213134766 164.17518615722656 C 87.69856262207031 169.8627471923828 94.1123046875 181.4249725341797 102.50092315673828 188.43740844726562 C 104.54267883300781 190.1676025390625 116.23362731933594 198.8904571533203 127.95409393310547 201.33212280273438 C 141.70562744140625 202.52610778808594 130.84214782714844 205.5102081298828 121.4378433227539 202.39659118652344 C 126.88436889648438 200.1806640625 140.164794921875 203.89488220214844 148.02032470703125 202.43885803222656 C 153.04161071777344 201.40745544433594 159.1585693359375 201.72975158691406 169.839111328125 195.53311157226562 C 164.99891662597656 196.0794219970703 179.94114685058594 194.2090606689453 186.3878173828125 173.60269165039062 C 187.85842895507812 160.0811309814453 193.60855102539062 192.32383728027344 189.98251342773438 175.40310668945312 C 180.62646484375 160.66168212890625 200.6471405029297 176.1029815673828 196.2382354736328 169.036376953125 C 200.43780517578125 178.49038696289062 197.60574340820312 163.67002868652344 198.31044006347656 192.3013458251953 L 194.5850372314453 197.7859344482422 L 180.04376220703125 206.95545959472656 L 172.91995239257812 201.40003967285156 C 186.32870483398438 211.16139221191406 182.4264373779297 200.87864685058594 164.17617797851562 210.67041015625 L 174.30169677734375 201.98606872558594 C 177.49351501464844 201.62400817871094 184.52587890625 203.90725708007812 178.45602416992188 207.41920471191406 C 161.16891479492188 216.516357421875 151.46897888183594 216.0371551513672 147.22433471679688 215.3413848876953 C 150.47474670410156 214.07606506347656 146.57981872558594 216.084716796875 156.54273986816406 215.74166870117188 C 133.85159301757812 218.4856414794922 124.17832946777344 216.0298614501953 112.34374237060547 213.29930114746094 C 100.5868148803711 209.5465545654297 97.59410858154297 208.16065979003906 85.30531311035156 200.993896484375 L 85.46469116210938 201.10569763183594 C 73.98332214355469 192.87451171875 67.99534606933594 186.5795440673828 61.68100357055664 167.85293579101562 C 66.28978729248047 170.8842315673828 61.23404312133789 169.52426147460938 62.22848129272461 168.6917724609375 C 60.66501235961914 166.20733642578125 54.90093231201172 144.91163635253906 56.13557815551758 124.19713592529297 C 55.70700454711914 129.1897735595703 57.02557373046875 102.9735336303711 64.91950225830078 88.19115447998047 C 66.260986328125 91.78068542480469 67.2177734375 95.46497344970703 63.56116485595703 91.93490600585938 C 66.6067886352539 81.032470703125 78.94348907470703 66.3395004272461 81.49976348876953 64.3305435180664 C 88.77621459960938 55.41016387939453 104.07243347167969 48.1652946472168 111.3237075805664 45.97234344482422 C 128.4849853515625 40.43159866333008 130.32810974121094 39.30862808227539 143.21434020996094 38.713470458984375 C 157.5098419189453 38.880157470703125 167.05372619628906 39.209964752197266 176.22119140625 42.73796081542969 C 174.2754364013672 50.54495620727539 169.59812927246094 47.97623825073242 165.35247802734375 39.78207778930664 C 172.84381103515625 40.93361282348633 194.10939025878906 45.023475646972656 194.13243103027344 47.847747802734375 L 192.43295288085938 88.98185729980469 C 194.10633850097656 87.13786315917969 182.66287231445312 90.26520538330078 179.72940063476562 86.63509368896484 C 178.0397186279297 66.99734497070312 177.2850799560547 62.876441955566406 182.17330932617188 89.39453125 C 176.642333984375 77.78683471679688 175.77569580078125 55.69406509399414 162.79273986816406 59.1224250793457 C 185.0624237060547 54.72935485839844 181.40748596191406 50.3062629699707 178.31536865234375 63.56355667114258 C 164.564453125 56.108558654785156 163.19412231445312 57.87376022338867 157.080810546875 55.627532958984375 C 128.7524871826172 52.115840911865234 131.503662109375 57.376075744628906 119.86064147949219 58.21519088745117 C 110.07640075683594 60.922607421875 121.83641052246094 53.97490692138672 123.12615966796875 58.490413665771484 C 115.3555908203125 61.55598449707031 106.21685791015625 67.40367126464844 99.53511047363281 74.77274322509766 L 100.1330337524414 73.83091735839844 C 88.36616516113281 89.43898010253906 91.64095306396484 88.01663970947266 87.68791198730469 95.66230010986328 C 88.74246215820312 95.09549713134766 84.3783187866211 106.07173156738281 85.4235610961914 107.04886627197266 C 83.66218566894531 108.06170654296875 82.5435791015625 129.33612060546875 79.48810577392578 142.4372100830078 L 82.62069702148438 120.60914611816406" stroke-width="1.0" fill="rgb(0, 0, 0)" opacity="0.99620676"/>
  </g>
</svg>
