<?xml version="1.0" ?>
<svg xmlns="http://www.w3.org/2000/svg" version="1.1" width="256" height="256">
  <defs/>
  <g>
    <path d="M 42.29369354248047 48.26243591308594 C 40.6752815246582 38.3415641784668 43.435394287109375 41.962318420410156 43.1158447265625 40.66391372680664 C 51.3983268737793 40.32094192504883 103.2053451538086 41.77122116088867 49.8488883972168 41.277687072753906 C 86.03060913085938 39.98039245605469 90.14588928222656 41.088539123535156 121.32361602783203 40.687538146972656 C 132.884765625 41.83714294433594 147.4540557861328 42.44945526123047 154.3715362548828 44.695587158203125 C 165.17771911621094 47.34804153442383 178.4378662109375 51.23422622680664 191.2979278564453 63.67564010620117 C 197.7937774658203 70.11039733886719 203.02232360839844 83.93144989013672 204.7276153564453 88.14793395996094 C 210.57711791992188 104.7951889038086 210.43630981445312 116.72799682617188 210.13214111328125 141.81166076660156 C 208.6120147705078 144.65550231933594 210.2241973876953 153.80349731445312 200.73974609375 172.4412384033203 C 196.3040771484375 180.43666076660156 189.3567352294922 186.8211669921875 183.84213256835938 191.81787109375 C 173.3297576904297 200.2083282470703 165.51968383789062 207.38333129882812 144.768310546875 212.2766876220703 C 146.6752166748047 211.11019897460938 129.03253173828125 217.9029541015625 108.20368957519531 215.27590942382812 C 122.74166107177734 216.3681640625 97.3756103515625 214.88601684570312 79.9616470336914 215.4910888671875 C 58.49333953857422 214.8590545654297 36.90689468383789 216.4700469970703 43.80690383911133 213.55934143066406 C 43.22732162475586 221.68966674804688 40.1092414855957 206.20042419433594 44.07676315307617 205.89834594726562 C 82.69454193115234 199.19168090820312 66.5135726928711 193.25733947753906 67.64298248291016 205.60287475585938 L 67.66790008544922 54.53307342529297 L 42.29369354248047 48.26243591308594M 104.47750091552734 53.330284118652344 C 107.57084655761719 52.58544921875 85.08186340332031 55.25510025024414 93.51583862304688 51.257354736328125 C 96.54764556884766 75.06382751464844 89.64344024658203 80.56565856933594 94.24959564208984 65.95664978027344 L 94.34938049316406 206.49136352539062 C 91.97207641601562 198.89288330078125 92.94937896728516 198.1834259033203 93.53275299072266 198.90158081054688 C 96.84449005126953 205.76036071777344 112.23643493652344 203.35145568847656 119.5153579711914 203.87969970703125 C 111.71144104003906 203.86912536621094 135.92095947265625 203.3683319091797 146.97044372558594 197.3114471435547 C 152.33706665039062 195.2891082763672 157.36708068847656 192.3604736328125 166.15782165527344 184.88055419921875 C 168.6642303466797 182.45773315429688 177.74049377441406 173.625244140625 181.44606018066406 160.85870361328125 C 184.33706665039062 149.54905700683594 184.15390014648438 147.4145965576172 184.80429077148438 135.51551818847656 C 184.10548400878906 105.66703796386719 183.8037567138672 117.50546264648438 181.90304565429688 103.92996978759766 C 181.2148895263672 98.87791442871094 176.26788330078125 83.06050872802734 167.3103790283203 73.03099060058594 C 154.8715362548828 59.24263000488281 151.34207153320312 62.112586975097656 152.03103637695312 60.90050506591797 C 137.45008850097656 54.5301513671875 116.92915344238281 53.154945373535156 126.25411224365234 53.214229583740234 L 104.47750091552734 53.330284118652344" stroke-width="1.0" fill="rgb(0, 0, 0)" opacity="0.9968131"/>
  </g>
</svg>
