<?xml version="1.0" ?>
<svg xmlns="http://www.w3.org/2000/svg" version="1.1" width="256" height="256">
  <defs/>
  <g>
    <path d="M 64.76371765136719 52.22418975830078 C 63.093318939208984 37.68450927734375 64.75563049316406 41.044742584228516 67.94297790527344 40.812408447265625 C 88.3343505859375 41.67852020263672 79.11583709716797 43.24189758300781 64.33892059326172 40.81184768676758 L 188.32797241210938 40.786705017089844 L 187.6652374267578 82.39065551757812 L 174.5623779296875 83.01588439941406 L 168.6539764404297 41.66465377807617 L 187.77420043945312 56.348876953125 L 111.8194808959961 56.276302337646484 L 111.89374542236328 117.01358032226562 L 150.26043701171875 117.07907104492188 C 156.8933563232422 89.87523651123047 144.0292205810547 99.21241760253906 164.0958709716797 96.61457061767578 L 164.39215087890625 156.37623596191406 L 155.7092742919922 156.89749145507812 C 153.5626983642578 156.95408630371094 156.28897094726562 144.38165283203125 152.09095764160156 134.65615844726562 L 111.71220397949219 134.52516174316406 L 111.79239654541016 200.25579833984375 L 173.3349151611328 200.4765625 L 177.05123901367188 193.23374938964844 L 181.11375427246094 174.52162170410156 C 198.9069366455078 177.44912719726562 196.1879119873047 173.1047821044922 195.94886779785156 183.1229248046875 L 190.88381958007812 214.8386688232422 L 63.354827880859375 215.88229370117188 L 62.685935974121094 204.57801818847656 L 75.9850845336914 200.57745361328125 C 89.84626770019531 200.21640014648438 84.11054992675781 200.41102600097656 85.2652816772461 191.64663696289062 L 85.24248504638672 57.28521728515625 L 70.96148681640625 55.48379898071289 L 64.76371765136719 52.22418975830078" stroke-width="1.0" fill="rgb(0, 0, 0)" opacity="1.0"/>
  </g>
</svg>
