<?xml version="1.0" ?>
<svg xmlns="http://www.w3.org/2000/svg" version="1.1" width="256" height="256">
  <defs/>
  <g>
    <path d="M 70.14063262939453 52.28057861328125 L 71.42787170410156 41.74656677246094 L 189.34889221191406 41.66645812988281 L 187.04718017578125 80.63915252685547 L 175.6597137451172 81.26007080078125 L 170.645263671875 51.968780517578125 L 185.42185974121094 56.10175704956055 L 114.427978515625 56.34928512573242 L 113.2349853515625 120.91448974609375 L 145.17266845703125 120.60939025878906 L 156.15029907226562 117.67357635498047 C 160.85447692871094 106.00122833251953 153.81591796875 97.9624252319336 168.203369140625 103.61015319824219 C 166.06011962890625 106.68021392822266 167.34506225585938 102.06588745117188 168.12094116210938 106.251708984375 L 167.1322021484375 155.21751403808594 L 157.6612091064453 156.19972229003906 L 153.2626190185547 137.76222229003906 L 112.53598022460938 137.07510375976562 L 112.43707275390625 197.4331817626953 C 114.34160614013672 200.87881469726562 113.72007751464844 196.51177978515625 117.77694702148438 200.1852569580078 L 137.33279418945312 203.93844604492188 L 135.16761779785156 215.23477172851562 L 66.55412292480469 215.31045532226562 C 64.80546569824219 197.4892578125 63.22894287109375 209.63955688476562 95.85433959960938 194.7530975341797 C 97.69146728515625 201.33132934570312 95.8825454711914 201.30784606933594 87.66496276855469 214.87318420410156 L 88.3196029663086 57.807918548583984 L 70.14063262939453 52.28057861328125" stroke-width="1.0" fill="rgb(0, 0, 0)" opacity="0.9962276"/>
  </g>
</svg>
