<?xml version="1.0" ?>
<svg xmlns="http://www.w3.org/2000/svg" version="1.1" width="256" height="256">
  <defs/>
  <g>
    <path d="M 144.6963653564453 134.2233428955078 L 208.34632873535156 134.30084228515625 C 208.30844116210938 147.95932006835938 212.2434539794922 139.443359375 193.38668823242188 154.13040161132812 L 192.9017791748047 156.76698303222656 L 192.8728790283203 204.76092529296875 C 193.674560546875 204.88345336914062 188.5364227294922 203.9166259765625 191.3155059814453 203.9945831298828 L 185.71044921875 204.1376495361328 L 188.50604248046875 203.26431274414062 L 187.808837890625 203.0740509033203 L 194.19976806640625 204.98013305664062 C 169.69403076171875 210.8906707763672 164.29400634765625 214.13800048828125 154.8749542236328 214.91162109375 C 131.67739868164062 219.91046142578125 120.3599853515625 216.77322387695312 112.73751068115234 216.11351013183594 C 134.06936645507812 212.36514282226562 119.63513946533203 217.762939453125 110.72132110595703 215.24134826660156 C 99.94815826416016 214.789794921875 86.9292221069336 207.44720458984375 76.47177124023438 200.05934143066406 C 71.36711120605469 195.18492126464844 64.55619812011719 189.640625 59.32224655151367 179.2584686279297 C 54.10274124145508 167.6913299560547 50.69849395751953 155.6279296875 49.02400588989258 139.36842346191406 C 48.60504913330078 142.08934020996094 46.96630096435547 111.7397232055664 55.45087432861328 92.55467224121094 L 52.19792556762695 102.23531341552734 C 54.78124237060547 92.49871826171875 60.66936111450195 77.33403015136719 71.38356018066406 66.04283905029297 C 79.60346984863281 56.49463653564453 93.04842376708984 48.7728385925293 100.50808715820312 45.86271667480469 C 106.01666259765625 44.019596099853516 122.65184020996094 37.687339782714844 143.3802490234375 37.8208122253418 C 157.97279357910156 39.091007232666016 167.0767059326172 40.3863410949707 171.500732421875 42.303585052490234 C 163.4252471923828 46.34235382080078 160.30020141601562 40.07114791870117 167.97207641601562 40.952781677246094 C 192.0406951904297 45.534446716308594 192.4402313232422 43.96345901489258 190.9198455810547 53.12772750854492 L 189.04733276367188 87.70014190673828 L 177.83206176757812 87.90492248535156 C 173.73500061035156 90.4419937133789 172.5756072998047 57.701393127441406 166.8663787841797 58.24979782104492 C 160.25054931640625 52.58177947998047 150.08314514160156 52.616432189941406 141.4593048095703 51.25788116455078 C 119.03946685791016 51.732940673828125 120.5484390258789 55.842323303222656 117.40401458740234 54.17155456542969 C 119.18064880371094 45.92789077758789 119.04837036132812 50.45378112792969 120.43900299072266 53.55500793457031 C 105.36995697021484 62.35248947143555 100.35523223876953 64.01654815673828 89.07107543945312 79.7020034790039 C 83.15093231201172 90.42203521728516 80.86799621582031 98.20856475830078 78.98482513427734 106.54996490478516 C 75.34721374511719 118.55219268798828 77.3281021118164 148.75094604492188 72.06790161132812 134.520751953125 C 72.31105041503906 133.1021728515625 67.02532958984375 134.6800079345703 76.52709197998047 126.57831573486328 C 75.28447723388672 149.38845825195312 82.95134735107422 167.5634765625 82.44271850585938 168.0225830078125 C 86.06188201904297 179.19931030273438 91.2557601928711 185.9669647216797 95.53948211669922 190.08023071289062 C 101.08617401123047 195.7550811767578 107.3042984008789 199.25816345214844 116.70185852050781 203.2271728515625 C 106.87865447998047 197.99839782714844 121.23255157470703 207.09291076660156 136.72393798828125 204.93003845214844 C 143.12744140625 207.2179718017578 127.25960540771484 206.11843872070312 139.80648803710938 204.73300170898438 C 149.68614196777344 203.81289672851562 150.0431365966797 201.87696838378906 161.77684020996094 200.06150817871094 C 154.31552124023438 201.32542419433594 162.79991149902344 199.33096313476562 171.50067138671875 196.5270233154297 C 169.52024841308594 202.9464111328125 165.96661376953125 207.40835571289062 169.1900177001953 195.6710205078125 L 169.18502807617188 155.71231079101562 C 169.3356170654297 149.97071838378906 159.2411346435547 151.28831481933594 166.2168426513672 151.5198211669922 L 142.32264709472656 146.11557006835938 L 141.4483642578125 134.82937622070312 L 144.6963653564453 134.2233428955078" stroke-width="1.0" fill="rgb(0, 0, 0)" opacity="1.0"/>
  </g>
</svg>
