<?xml version="1.0" ?>
<svg xmlns="http://www.w3.org/2000/svg" version="1.1" width="256" height="256">
  <defs/>
  <g>
    <path d="M 176.9063720703125 133.95408630371094 L 85.38699340820312 133.89796447753906 L 85.35730743408203 206.97573852539062 C 84.64302062988281 205.0165252685547 81.57184600830078 188.7511444091797 83.59529876708984 198.2517547607422 L 102.61302185058594 204.136962890625 C 108.30445861816406 205.77378845214844 105.53031921386719 217.27066040039062 102.55239868164062 217.16500854492188 L 39.17694854736328 216.5792999267578 L 38.50492858886719 204.4575958251953 L 62.7098388671875 198.8431854248047 C 69.85444641113281 191.69020080566406 67.02610778808594 198.61178588867188 61.408226013183594 216.77455139160156 L 61.471675872802734 38.737770080566406 L 62.25152587890625 53.9323844909668 L 38.89177703857422 48.07515335083008 C 38.05944061279297 37.8858528137207 39.449005126953125 39.61031723022461 41.300960540771484 39.09543991088867 L 105.80138397216797 39.0603141784668 L 105.87699890136719 49.23234558105469 L 84.53755187988281 52.75654220581055 C 93.14569854736328 58.68581771850586 93.38311004638672 58.825199127197266 85.38407897949219 53.31742477416992 L 85.34490966796875 117.92880249023438 L 175.2410430908203 117.92894744873047 L 175.0927734375 54.34140396118164 L 154.1240234375 49.786109924316406 L 154.47396850585938 38.97614669799805 C 152.634765625 39.05418014526367 155.11790466308594 39.03274154663086 152.01832580566406 39.04771041870117 L 221.9945068359375 39.07203674316406 C 220.488037109375 59.46220779418945 224.6390380859375 47.26267623901367 219.25433349609375 51.73942184448242 L 191.3649444580078 56.542171478271484 C 189.24362182617188 49.42049789428711 187.93907165527344 52.88658905029297 196.2249755859375 45.8820686340332 L 196.0478515625 216.87559509277344 C 190.4928741455078 213.61416625976562 184.55972290039062 209.0539093017578 196.29537963867188 192.1129913330078 C 196.06558227539062 203.78501892089844 195.2032470703125 197.70220947265625 221.68203735351562 208.4600067138672 L 219.82923889160156 217.5970458984375 L 150.71490478515625 217.11422729492188 L 150.71038818359375 206.65513610839844 L 173.3170166015625 200.1912841796875 L 175.15476989746094 197.0690460205078 L 175.1799774169922 128.93130493164062 L 176.9063720703125 133.95408630371094" stroke-width="1.0" fill="rgb(1, 1, 1)" opacity="1.0"/>
  </g>
</svg>
