<?xml version="1.0" ?>
<svg xmlns="http://www.w3.org/2000/svg" version="1.1" width="256" height="256">
  <defs/>
  <g>
    <path d="M 137.52908325195312 58.757625579833984 L 143.59535217285156 60.167816162109375 L 143.61585998535156 40.056522369384766 C 193.29998779296875 41.81038284301758 183.02572631835938 33.85448455810547 186.1180419921875 56.128692626953125 L 166.69163513183594 59.351478576660156 L 167.21580505371094 158.12295532226562 C 167.25955200195312 168.61856079101562 165.62803649902344 175.13735961914062 161.2901611328125 186.82582092285156 C 157.41299438476562 192.66343688964844 157.71994018554688 196.51856994628906 147.6630401611328 205.50001525878906 C 143.29632568359375 210.71498107910156 134.49615478515625 214.25669860839844 128.08197021484375 216.11512756347656 C 125.97102355957031 215.498046875 126.28406524658203 217.46873474121094 116.00444030761719 217.3448944091797 C 103.46276092529297 217.08978271484375 88.04671478271484 214.26153564453125 99.34768676757812 216.14527893066406 C 75.42584991455078 211.043212890625 83.3808822631836 210.7955322265625 81.25933837890625 209.4218292236328 L 88.43798065185547 192.56838989257812 C 84.18717193603516 203.44305419921875 87.97056579589844 191.71823120117188 93.03561401367188 191.17234802246094 C 101.21569061279297 194.87286376953125 105.85423278808594 198.61859130859375 114.61096954345703 199.32289123535156 C 122.1720199584961 199.0030517578125 126.85133361816406 198.14779663085938 133.9830780029297 191.8288116455078 C 138.23992919921875 187.24143981933594 144.65643310546875 173.6248779296875 143.59446716308594 160.8137664794922 L 143.61570739746094 40.37026596069336 L 125.6556167602539 40.09519958496094 L 124.12287902832031 55.08182144165039 L 137.52908325195312 58.757625579833984" stroke-width="1.0" fill="rgb(1, 1, 1)" opacity="0.9999941"/>
  </g>
</svg>
