<?xml version="1.0" ?>
<svg xmlns="http://www.w3.org/2000/svg" version="1.1" width="256" height="256">
  <defs/>
  <g>
    <path d="M 220.42962646484375 214.4099578857422 L 169.24571228027344 214.15643310546875 L 92.63302612304688 119.19744873046875 L 89.16798400878906 127.31913757324219 C 85.91647338867188 124.45335388183594 87.6740493774414 122.71082305908203 92.17504119873047 96.01473236083984 L 92.86914825439453 213.78607177734375 L 82.4779281616211 199.3576202392578 L 113.56826782226562 206.83815002441406 L 112.39846801757812 214.66107177734375 L 46.782958984375 214.5243682861328 C 43.24087142944336 198.86981201171875 53.11211395263672 209.60520935058594 66.62327575683594 196.84811401367188 L 66.63835906982422 55.69068145751953 L 36.71742630004883 41.27413558959961 L 120.01322174072266 41.245338439941406 L 92.52373504638672 57.676151275634766 L 92.51628112792969 155.2024383544922 C 88.07206726074219 118.73002624511719 87.9571762084961 128.36801147460938 101.12779998779297 132.2472686767578 L 116.40644073486328 149.56663513183594 C 88.58686828613281 108.92926025390625 88.72007751464844 135.2618865966797 121.20032501220703 99.89195251464844 L 165.32888793945312 48.30302429199219 L 165.92835998535156 53.95001220703125 L 143.38177490234375 48.96253967285156 L 142.4316864013672 41.08152770996094 L 201.6216278076172 41.08765411376953 L 202.37303161621094 49.06993103027344 L 178.08058166503906 54.86647415161133 L 122.37262725830078 118.77066802978516 L 186.34071350097656 195.08517456054688 L 220.42962646484375 214.4099578857422" stroke-width="1.0" fill="rgb(2, 2, 2)" opacity="1.0"/>
  </g>
</svg>
