<?xml version="1.0" ?>
<svg xmlns="http://www.w3.org/2000/svg" version="1.1" width="256" height="256">
  <defs/>
  <g>
    <path d="M 177.0347137451172 95.61560821533203 L 133.06500244140625 189.5357666015625 L 124.26641082763672 212.2628173828125 L 120.21827697753906 213.57675170898438 L 60.96141815185547 69.8955307006836 L 52.872352600097656 202.08753967285156 L 46.69975280761719 195.73849487304688 L 77.56108093261719 203.5900115966797 L 75.64217376708984 213.39730834960938 C 30.30875587463379 212.7910614013672 15.082714080810547 214.01202392578125 19.915000915527344 213.18605041503906 C 16.564260482788086 191.66783142089844 26.750778198242188 205.08975219726562 39.49698257446289 193.04591369628906 L 48.54743957519531 65.56597137451172 C 41.67204284667969 168.01182556152344 46.882896423339844 116.76848602294922 44.78390884399414 71.53910827636719 C 49.361820220947266 51.958194732666016 21.7115421295166 27.219240188598633 22.635526657104492 55.469303131103516 L 43.897377014160156 56.74260711669922 L 33.59407043457031 43.13507080078125 L 48.092891693115234 43.86748123168945 C 71.93617248535156 42.45054244995117 74.1673812866211 45.07500076293945 73.07654571533203 45.3033447265625 C 88.37313079833984 72.82810974121094 102.67330169677734 107.24089813232422 79.12066650390625 51.3046875 L 128.2127227783203 166.10777282714844 L 133.03892517089844 153.28448486328125 L 187.03530883789062 42.796295166015625 L 239.08877563476562 43.692909240722656 L 210.65310668945312 62.965965270996094 L 211.693115234375 197.1461181640625 C 197.75936889648438 190.24783325195312 213.8807373046875 198.19772338867188 236.15626525878906 202.49789428710938 C 237.01602172851562 203.01950073242188 236.6890411376953 212.7138671875 234.2364044189453 213.40896606445312 L 169.42454528808594 213.3778076171875 C 167.9226531982422 195.260986328125 168.63824462890625 207.3266143798828 188.9512176513672 195.3628692626953 L 187.21435546875 78.2796630859375 L 177.0347137451172 95.61560821533203" stroke-width="1.0" fill="rgb(0, 0, 0)" opacity="0.9926299"/>
  </g>
</svg>
