<?xml version="1.0" ?>
<svg xmlns="http://www.w3.org/2000/svg" version="1.1" width="256" height="256">
  <defs/>
  <g>
    <path d="M 79.72545623779297 74.2772445678711 L 79.79815673828125 195.71774291992188 C 72.06063842773438 192.99996948242188 80.57329559326172 194.71621704101562 88.1751480102539 196.8975372314453 C 102.32951354980469 203.46031188964844 100.37528228759766 193.66258239746094 98.70018768310547 213.46481323242188 C 85.38421630859375 214.8611297607422 92.35224151611328 211.0843963623047 98.22489929199219 214.1758270263672 L 41.22536849975586 213.79324340820312 L 40.212947845458984 202.07974243164062 C 39.77312088012695 198.7614288330078 58.02848434448242 194.69400024414062 60.50539016723633 195.37710571289062 L 60.51918411254883 41.592254638671875 L 71.53115844726562 59.7231559753418 L 43.785091400146484 56.67904281616211 C 40.09030532836914 52.856773376464844 41.01143264770508 58.6063232421875 42.159423828125 41.25746154785156 L 83.45511627197266 41.20233154296875 L 179.19219970703125 174.89939880371094 L 179.3636474609375 60.565711975097656 C 179.76071166992188 57.594459533691406 159.52850341796875 60.72113800048828 159.80145263671875 53.67340850830078 L 160.77743530273438 41.503475189208984 L 210.27578735351562 41.827762603759766 C 220.86729431152344 41.658348083496094 215.48402404785156 37.06602096557617 218.0019989013672 57.66286087036133 C 216.5360107421875 57.98175048828125 222.7447052001953 60.841922760009766 183.30938720703125 59.25350570678711 L 196.6708526611328 45.64064025878906 L 196.56674194335938 214.1233673095703 L 177.34580993652344 213.9913787841797 C 172.75146484375 211.90806579589844 165.24317932128906 194.0590057373047 172.91201782226562 207.8245849609375 L 152.90313720703125 176.55279541015625 L 173.4813232421875 203.75802612304688 L 86.40225982666016 88.55646514892578 L 104.60498809814453 112.59175109863281 L 79.72545623779297 74.2772445678711" stroke-width="1.0" fill="rgb(1, 1, 1)" opacity="1.0"/>
  </g>
</svg>
