<?xml version="1.0" ?>
<svg xmlns="http://www.w3.org/2000/svg" version="1.1" width="256" height="256">
  <defs/>
  <g>
    <path d="M 46.00618362426758 151.01971435546875 C 43.26510238647461 136.8666229248047 43.850013732910156 118.36804962158203 45.927734375 107.61795806884766 C 47.86931228637695 96.30757141113281 52.24537658691406 84.27678680419922 58.944862365722656 73.31758880615234 C 70.96507263183594 56.81222152709961 76.71002960205078 54.658111572265625 89.22834014892578 47.04244613647461 L 78.46968841552734 50.40666961669922 C 98.4819564819336 44.624507904052734 108.70037841796875 36.5670051574707 128.843017578125 37.92156982421875 C 148.4141845703125 37.87446975708008 165.1779022216797 44.24154281616211 174.7355499267578 49.82596969604492 C 173.0095672607422 49.9227294921875 177.7626953125 50.93821716308594 179.11215209960938 51.95930480957031 C 181.73513793945312 55.1807975769043 189.78787231445312 57.98877716064453 197.5292205810547 71.55142974853516 L 201.01283264160156 78.24333953857422 C 205.20843505859375 87.5628890991211 206.52333068847656 89.3414077758789 209.99081420898438 103.90776062011719 C 205.75790405273438 115.85356140136719 203.5009765625 97.18169403076172 209.4322509765625 103.02543640136719 C 213.76473999023438 114.19926452636719 212.32106018066406 144.17210388183594 211.93568420410156 141.198974609375 C 211.53944396972656 148.18829345703125 208.330078125 163.31527709960938 197.05743408203125 179.54893493652344 C 197.5493621826172 178.5861358642578 190.8306121826172 188.39027404785156 183.2274932861328 195.35772705078125 L 177.0386505126953 200.52626037597656 C 170.93405151367188 205.84019470214844 159.17861938476562 212.51895141601562 150.48902893066406 213.54344177246094 C 154.84512329101562 214.19996643066406 145.3950653076172 210.4250030517578 156.28233337402344 214.07879638671875 C 150.45021057128906 211.85824584960938 146.17819213867188 220.31600952148438 109.47456359863281 216.433837890625 L 111.32169342041016 214.36212158203125 C 108.15752410888672 227.16558837890625 108.57861328125 225.5638885498047 111.16798400878906 215.60662841796875 C 110.3996810913086 209.88092041015625 111.70271301269531 204.90457153320312 112.51746368408203 216.181640625 C 93.34479522705078 214.74099731445312 90.33159637451172 207.7298583984375 80.77706909179688 206.40245056152344 L 86.1685791015625 207.67030334472656 C 65.85277557373047 197.2152862548828 61.318031311035156 190.16107177734375 53.47127151489258 175.77548217773438 L 50.40039825439453 167.80223083496094 C 49.60783386230469 166.12698364257812 43.57479476928711 150.88641357421875 47.02297592163086 140.35879516601562 L 46.00618362426758 151.01971435546875M 72.50675201416016 145.95872497558594 C 71.5565185546875 150.10255432128906 75.03168487548828 160.91590881347656 76.73805236816406 167.18307495117188 C 72.42832946777344 166.50607299804688 71.8107681274414 167.33612060546875 75.83531951904297 162.94754028320312 C 78.84978485107422 173.30223083496094 80.91030883789062 181.6462860107422 89.7075424194336 191.04690551757812 L 97.48896026611328 197.01486206054688 C 91.65990447998047 192.70639038085938 94.31036376953125 195.5155029296875 100.41161346435547 198.4306182861328 C 104.67496490478516 201.34707641601562 120.0770263671875 207.03871154785156 131.39537048339844 205.27401733398438 C 134.17662048339844 206.2801055908203 143.9745635986328 202.39724731445312 150.37901306152344 200.1136932373047 C 158.57083129882812 196.2144317626953 161.14822387695312 192.52227783203125 166.1106414794922 189.51300048828125 C 162.2972869873047 196.1845245361328 163.8188018798828 194.42295837402344 162.58126831054688 191.47149658203125 C 174.49920654296875 180.3262481689453 175.73843383789062 173.96563720703125 176.18431091308594 174.00534057617188 C 183.3430938720703 160.77337646484375 186.05577087402344 148.29159545898438 186.5134735107422 136.24166870117188 C 187.27423095703125 126.4137191772461 185.44256591796875 118.66511535644531 186.536376953125 126.07908630371094 L 185.35433959960938 114.16925048828125 C 183.89108276367188 108.04320526123047 184.7090606689453 103.93781280517578 176.92291259765625 86.11614227294922 C 182.29286193847656 73.64155578613281 184.27227783203125 78.39098358154297 178.81866455078125 88.8601303100586 C 173.78042602539062 80.60623168945312 173.27186584472656 69.64485168457031 147.19464111328125 49.92110061645508 L 165.37962341308594 58.708038330078125 C 173.19467163085938 72.95562744140625 170.3045654296875 66.25984191894531 167.5418243408203 67.01419830322266 C 149.44520568847656 53.58075714111328 147.10232543945312 52.95078659057617 124.26577758789062 49.79800796508789 L 141.6475372314453 47.22721862792969 C 132.7735595703125 52.97459411621094 133.0040283203125 49.759159088134766 120.81478118896484 51.62825393676758 C 94.93051147460938 56.746952056884766 105.10771942138672 62.92670822143555 92.41483306884766 57.92064666748047 C 109.90604400634766 49.905147552490234 105.73007202148438 55.35917282104492 93.99090576171875 61.970027923583984 C 88.70475769042969 64.74683380126953 88.75048828125 54.58366394042969 101.04678344726562 58.82234573364258 C 86.46746826171875 68.9572982788086 80.22376251220703 85.66920471191406 79.32644653320312 88.94336700439453 C 76.10363006591797 95.4011459350586 74.36959075927734 109.16511535644531 72.05687713623047 116.89354705810547 C 72.42999267578125 122.81812286376953 68.93000793457031 127.04035186767578 72.19317626953125 148.83010864257812 L 72.50675201416016 145.95872497558594" stroke-width="1.0" fill="rgb(0, 0, 0)" opacity="0.9971338"/>
  </g>
</svg>
