<?xml version="1.0" ?>
<svg xmlns="http://www.w3.org/2000/svg" version="1.1" width="256" height="256">
  <defs/>
  <g>
    <path d="M 62.01143264770508 40.84498977661133 L 62.53236389160156 50.13327407836914 C 96.46283721923828 54.18741226196289 78.1738052368164 55.20228958129883 86.81404113769531 41.00807571411133 L 86.90654754638672 40.642826080322266 C 90.94049072265625 41.18575668334961 129.4475860595703 40.335716247558594 139.4603271484375 41.047306060791016 C 125.38082885742188 40.2398567199707 147.4828643798828 40.72824478149414 157.69815063476562 42.321067810058594 C 165.01132202148438 43.38407516479492 174.14193725585938 46.876705169677734 183.8271026611328 53.471519470214844 C 182.9441375732422 53.64625549316406 190.88722229003906 59.614383697509766 192.67420959472656 65.93714904785156 C 200.04214477539062 80.0370864868164 194.18682861328125 104.67721557617188 197.03836059570312 93.74513244628906 C 195.72572326660156 97.07369995117188 194.95262145996094 107.70535278320312 189.3240509033203 116.67396545410156 C 179.11045837402344 134.40725708007812 170.5926971435547 128.0997772216797 179.44956970214844 128.7078399658203 C 167.337158203125 137.50592041015625 153.02822875976562 143.72845458984375 145.3684844970703 144.81971740722656 C 153.9059600830078 144.2319793701172 128.3271484375 148.68826293945312 113.74757385253906 148.07969665527344 C 107.77124786376953 149.41038513183594 106.74242401123047 147.7321014404297 110.14435577392578 145.30723571777344 L 110.40650939941406 200.2557830810547 L 134.4311065673828 204.26612854003906 C 133.31201171875 219.408447265625 133.75335693359375 194.34913635253906 133.84278869628906 214.7184600830078 L 61.33934783935547 214.8347930908203 C 62.554351806640625 214.9778289794922 57.94321060180664 217.88348388671875 61.77860641479492 206.63832092285156 L 84.17626190185547 202.5303955078125 L 84.23050689697266 40.20956802368164 C 83.89466094970703 53.4586181640625 81.50791931152344 52.5718994140625 86.6147689819336 40.53927230834961 L 62.01143264770508 40.84498977661133M 118.72789764404297 132.7537078857422 C 139.9842071533203 134.66371154785156 151.3786163330078 129.09254455566406 159.5126953125 121.47134399414062 C 167.04469299316406 115.44674682617188 171.42076110839844 104.6198501586914 171.6208038330078 89.1780014038086 C 170.92222595214844 88.57350158691406 174.1897735595703 69.9447021484375 157.3180389404297 60.15447235107422 C 150.60768127441406 55.150413513183594 131.1207733154297 51.807926177978516 122.8065185546875 52.831329345703125 C 93.91584014892578 52.94685745239258 115.4710464477539 52.58633804321289 106.62689971923828 53.51616668701172 C 106.05720520019531 70.31776428222656 98.77694702148438 55.521202087402344 110.23735046386719 50.05570983886719 L 110.25418853759766 142.07835388183594 C 102.7639389038086 133.1804962158203 102.37320709228516 130.96343994140625 108.85295104980469 129.42010498046875 C 108.67851257324219 133.88560485839844 121.39228820800781 131.70359802246094 132.37139892578125 132.24192810058594 L 118.72789764404297 132.7537078857422" stroke-width="1.0" fill="rgb(0, 0, 0)" opacity="0.9997837"/>
  </g>
</svg>
