<?xml version="1.0" ?>
<svg xmlns="http://www.w3.org/2000/svg" version="1.1" width="256" height="256">
  <defs/>
  <g>
    <path d="M 43.950870513916016 141.1397705078125 C 41.39670181274414 132.17904663085938 41.366607666015625 116.25130462646484 43.98308563232422 99.73259735107422 C 49.9965705871582 78.07735443115234 56.65132522583008 64.76143646240234 56.94027328491211 70.43292236328125 C 57.29362106323242 66.48136901855469 60.18891143798828 64.14265441894531 61.17852783203125 58.8741340637207 C 61.2906379699707 65.61470794677734 55.863224029541016 73.01732635498047 52.51409912109375 74.46923065185547 C 62.86415100097656 56.59690856933594 81.2947006225586 26.864347457885742 141.10227966308594 29.121013641357422 L 152.03944396972656 45.41485595703125 C 116.34453582763672 40.50568771362305 115.17781829833984 42.816612243652344 96.86808776855469 53.89746856689453 C 102.69386291503906 63.268985748291016 113.49516296386719 61.38606643676758 131.53134155273438 64.26570129394531 L 124.08098602294922 64.53005981445312 C 159.13758850097656 64.04727935791016 123.46414947509766 53.044437408447266 135.49761962890625 28.573772430419922 C 147.94219970703125 27.760793685913086 150.7926483154297 34.618865966796875 146.790771484375 30.10495948791504 C 173.85720825195312 38.3781852722168 175.53067016601562 45.20709991455078 163.5550994873047 36.331146240234375 C 179.1996307373047 43.97782897949219 188.96681213378906 57.79084396362305 193.25819396972656 63.65732192993164 C 202.9658203125 82.78345489501953 207.26907348632812 94.60151672363281 208.22134399414062 105.92597198486328 C 208.85333251953125 116.07971954345703 209.97438049316406 125.18279266357422 205.4539031982422 145.01913452148438 C 200.19447326660156 165.97024536132812 190.4219970703125 174.07086181640625 185.62164306640625 180.52691650390625 L 176.03082275390625 190.845703125 C 182.6044921875 168.6663055419922 189.39329528808594 190.87728881835938 147.9203643798828 207.42306518554688 L 165.62718200683594 211.19461059570312 L 203.4857177734375 224.18673706054688 L 193.0218048095703 220.33255004882812 L 187.11801147460938 231.75143432617188 C 182.45257568359375 240.05052185058594 163.78611755371094 228.62400817871094 151.6109161376953 222.2736358642578 C 152.841552734375 216.64698791503906 128.06980895996094 211.29844665527344 152.92843627929688 214.20782470703125 C 154.8956756591797 213.42857360839844 127.35784912109375 219.14622497558594 124.3311996459961 209.56072998046875 L 140.23719787597656 214.6884307861328 C 116.93159484863281 217.8644256591797 108.05512237548828 213.83665466308594 91.35796356201172 204.26145935058594 C 84.00863647460938 201.88302612304688 94.5101318359375 195.57257080078125 89.25540161132812 199.83291625976562 C 87.0360336303711 201.6894989013672 86.78092956542969 205.37234497070312 92.02924346923828 190.66697692871094 C 95.70820617675781 202.99147033691406 87.69781494140625 198.4262237548828 91.34573364257812 204.21871948242188 C 75.67695617675781 198.4046630859375 58.40431594848633 180.9484405517578 55.70485305786133 175.53445434570312 C 50.993560791015625 169.49505615234375 47.837371826171875 160.2009735107422 43.735862731933594 143.2595672607422 L 43.950870513916016 141.1397705078125M 147.6608428955078 190.89126586914062 L 156.36819458007812 183.4412078857422 L 172.11033630371094 163.4674835205078 C 191.3136749267578 172.51734924316406 176.41275024414062 186.4711456298828 165.7963104248047 170.63217163085938 C 171.20745849609375 164.5239715576172 177.44654846191406 151.02593994140625 178.09515380859375 146.36016845703125 C 182.55987548828125 130.93026733398438 182.17239379882812 125.4928207397461 181.70639038085938 113.52385711669922 C 182.50222778320312 113.25545501708984 178.6908416748047 91.7833023071289 173.3426513671875 78.06019592285156 L 185.99302673339844 87.35271453857422 C 173.459716796875 92.46662902832031 175.7037353515625 70.13658142089844 153.5601043701172 51.59525680541992 C 155.1946563720703 53.62113952636719 156.65904235839844 52.863380432128906 144.15365600585938 46.363101959228516 C 134.11875915527344 42.42127990722656 122.42236328125 43.9653205871582 132.31048583984375 38.57551574707031 C 134.24267578125 54.4500846862793 145.0028076171875 59.86890411376953 137.01365661621094 62.969146728515625 C 129.21246337890625 65.1993637084961 134.05662536621094 62.463863372802734 131.57040405273438 64.20709991455078 C 116.33956909179688 61.463623046875 101.25894165039062 63.57148361206055 96.69020080566406 52.8728141784668 C 105.28697967529297 49.94717788696289 94.92576599121094 55.45573425292969 90.10270690917969 60.938079833984375 C 89.09516143798828 48.8912467956543 86.16268920898438 54.149940490722656 104.96630859375 44.67158889770508 C 94.67951965332031 60.08953857421875 81.68438720703125 63.36602783203125 73.02128601074219 91.90201568603516 C 73.47522735595703 91.9065170288086 70.48104095458984 97.2616958618164 69.00957489013672 110.81991577148438 C 67.33905029296875 112.88902282714844 67.73323059082031 134.07583618164062 70.0553970336914 141.04884338378906 C 71.14146423339844 147.93235778808594 74.12236022949219 160.55545043945312 84.67652130126953 175.60865783691406 C 81.9006118774414 177.78631591796875 81.89515686035156 178.66317749023438 81.58683776855469 170.4608917236328 C 87.04969787597656 180.21788024902344 103.36897277832031 195.25283813476562 108.15618896484375 195.8928680419922 C 119.61222076416016 200.6746826171875 131.22988891601562 200.28868103027344 139.60061645507812 195.3380126953125 C 134.94786071777344 199.7987518310547 144.71044921875 197.1649627685547 147.7041015625 202.17857360839844 C 143.12576293945312 201.49147033691406 154.16207885742188 201.71051025390625 153.6845703125 223.19534301757812 C 140.8407745361328 213.9600830078125 138.7877960205078 211.99697875976562 131.11766052246094 212.8927459716797 L 121.5490493774414 206.09713745117188 L 147.6608428955078 190.89126586914062" stroke-width="1.0" fill="rgb(0, 0, 0)" opacity="0.99704987"/>
  </g>
</svg>
