<?xml version="1.0" ?>
<svg xmlns="http://www.w3.org/2000/svg" version="1.1" width="256" height="256">
  <defs/>
  <g>
    <path d="M 173.911376953125 220.60406494140625 L 147.9285888671875 180.53668212890625 C 142.87753295898438 171.6116180419922 135.22825622558594 159.54812622070312 127.41436767578125 149.15310668945312 C 117.68745422363281 138.56024169921875 119.89990234375 137.4796905517578 108.41422271728516 137.83155822753906 L 96.31499481201172 137.65386962890625 L 96.29171752929688 195.8724822998047 L 120.42940521240234 199.92166137695312 L 119.09590911865234 213.45416259765625 L 118.09917449951172 215.17361450195312 L 50.572174072265625 215.17263793945312 C 52.523006439208984 211.4041748046875 49.698978424072266 223.2340087890625 50.34247589111328 201.915283203125 L 71.65843200683594 195.39312744140625 L 71.58869171142578 51.91628646850586 L 79.88810729980469 57.8239631652832 L 52.116085052490234 57.58415222167969 C 48.48414611816406 56.993385314941406 52.57915115356445 37.7674446105957 48.0487060546875 41.312191009521484 C 103.38937377929688 41.29486846923828 113.96111297607422 41.288944244384766 109.4322509765625 41.400264739990234 C 107.52655792236328 41.36320877075195 127.40557861328125 43.49422073364258 101.9378662109375 41.523006439208984 C 125.54686737060547 41.33665466308594 149.2687225341797 41.00395202636719 153.2285919189453 44.000877380371094 C 152.90423583984375 42.57121658325195 168.86167907714844 47.627769470214844 175.0433807373047 55.997650146484375 C 176.87400817871094 58.80665588378906 177.5841827392578 57.441436767578125 181.8597412109375 69.49158477783203 C 184.78306579589844 88.29730224609375 182.76119995117188 87.95821380615234 183.20550537109375 75.13375854492188 C 185.00453186035156 93.80895233154297 182.99908447265625 104.52032470703125 175.3984832763672 115.12263488769531 C 168.31790161132812 123.95619201660156 156.2963409423828 132.10360717773438 136.03280639648438 134.82080078125 C 150.9985809326172 131.74349975585938 150.3920440673828 131.96328735351562 138.6534423828125 134.93917846679688 C 143.6302032470703 136.5922393798828 146.70130920410156 140.8865203857422 154.34481811523438 151.48666381835938 C 159.281494140625 149.11788940429688 162.27772521972656 147.9353485107422 154.09036254882812 151.4950408935547 C 156.85691833496094 153.9456787109375 150.66351318359375 146.63221740722656 166.4965057373047 168.43173217773438 L 167.8638153076172 174.60768127441406 C 158.49085998535156 185.20053100585938 163.16590881347656 169.6788330078125 162.1380157470703 165.7759552001953 C 169.299072265625 168.71116638183594 169.96896362304688 176.73545837402344 185.72918701171875 197.00274658203125 L 190.4879913330078 199.2073211669922 L 207.63841247558594 201.60470581054688 C 205.0640106201172 219.7779998779297 205.68768310546875 212.8374786376953 203.310791015625 215.2301025390625 L 180.14183044433594 215.08193969726562 C 169.53147888183594 212.79611206054688 168.3405303955078 210.9603271484375 161.54971313476562 200.71566772460938 L 167.4058074951172 210.388671875 L 173.911376953125 220.60406494140625M 131.8683319091797 57.191566467285156 C 115.2691879272461 58.27096939086914 105.51585388183594 56.4202766418457 127.67705535888672 57.23545837402344 C 87.49800109863281 58.382347106933594 89.72496032714844 55.617454528808594 96.34325408935547 56.611995697021484 L 96.3980941772461 123.45581817626953 L 120.0106430053711 123.17999267578125 C 139.5039520263672 122.90995025634766 145.57786560058594 115.74913024902344 150.44805908203125 112.6967544555664 C 158.35043334960938 105.77250671386719 164.29714965820312 95.08890533447266 160.39112854003906 74.56851959228516 C 159.78204345703125 83.5230484008789 162.74867248535156 74.7763900756836 156.47439575195312 67.66810607910156 C 151.01080322265625 59.78774642944336 137.90382385253906 57.08201599121094 116.37567901611328 57.3277473449707 L 131.8683319091797 57.191566467285156" stroke-width="1.0" fill="rgb(0, 0, 0)" opacity="0.9968701"/>
  </g>
</svg>
