<?xml version="1.0" ?>
<svg xmlns="http://www.w3.org/2000/svg" version="1.1" width="256" height="256">
  <defs/>
  <g>
    <path d="M 72.45925903320312 164.74208068847656 L 78.02690124511719 164.5009307861328 L 81.31820678710938 166.6658477783203 L 78.95862579345703 165.1778564453125 C 84.47046661376953 164.44898986816406 83.68107604980469 186.45143127441406 90.34546661376953 195.6210174560547 C 93.61943054199219 198.87796020507812 95.45418548583984 200.58323669433594 98.14456176757812 205.4852294921875 C 84.97828674316406 199.35450744628906 95.04930114746094 202.56927490234375 86.13786315917969 195.78663635253906 L 99.02198028564453 202.5612030029297 C 103.3343276977539 203.51007080078125 113.46455383300781 208.22708129882812 132.67547607421875 204.62306213378906 C 137.0612335205078 207.38392639160156 143.12966918945312 208.98927307128906 119.35254669189453 207.00857543945312 C 133.3648681640625 204.7624969482422 144.64784240722656 201.556884765625 151.2108917236328 193.7463836669922 C 157.65806579589844 187.68479919433594 161.47579956054688 179.51223754882812 161.54229736328125 175.24530029296875 C 163.23109436035156 174.45521545410156 158.8799591064453 164.3990936279297 164.0893096923828 160.78964233398438 C 161.5599365234375 176.0695037841797 162.7050018310547 166.265869140625 166.93685913085938 161.65342712402344 L 162.5442352294922 174.887451171875 C 160.3188934326172 163.12210083007812 153.84188842773438 159.8525848388672 153.82337951660156 155.53395080566406 C 167.13133239746094 155.398681640625 163.31918334960938 150.32815551757812 161.8220672607422 165.26683044433594 C 154.5752410888672 158.99659729003906 151.35772705078125 154.95433044433594 140.66693115234375 148.77713012695312 C 140.9009552001953 140.5465087890625 142.4312744140625 140.40118408203125 142.8257293701172 150.3497314453125 C 140.67369079589844 148.43045043945312 128.19674682617188 141.2163543701172 120.9544906616211 137.44029235839844 C 111.56023406982422 131.93165588378906 104.37353515625 126.76619720458984 102.76908874511719 126.55712127685547 C 112.69349670410156 123.47386932373047 112.51580810546875 124.26097106933594 109.49816131591797 129.04539489746094 C 93.45638275146484 123.55782318115234 85.27307891845703 109.5560302734375 102.9212417602539 114.28799438476562 C 97.4725570678711 117.58296966552734 100.55199432373047 116.25894927978516 96.3174819946289 121.57418060302734 C 76.75273132324219 107.54716491699219 76.58211517333984 98.9410629272461 78.13401794433594 99.05316162109375 L 79.75828552246094 105.80220794677734 C 75.3511734008789 98.780029296875 73.96992492675781 93.88835906982422 73.40323638916016 83.5246353149414 C 73.91069793701172 75.9476318359375 74.60840606689453 70.52848052978516 75.91627502441406 67.45488739013672 C 78.02731323242188 62.01653289794922 82.84803009033203 53.722774505615234 90.13044738769531 49.622596740722656 C 100.0202865600586 47.05762481689453 91.72579193115234 55.47724151611328 85.05430603027344 54.73822784423828 C 85.90580749511719 50.14803695678711 97.50839233398438 44.469940185546875 101.76854705810547 42.60207748413086 C 107.5924072265625 38.82444381713867 118.01294708251953 35.77403259277344 133.95069885253906 36.702781677246094 C 149.65089416503906 36.68803787231445 160.486083984375 41.86482620239258 163.41424560546875 42.447696685791016 C 152.64532470703125 53.52009201049805 144.84510803222656 46.784366607666016 159.65191650390625 40.556358337402344 L 172.72970581054688 44.697044372558594 C 175.0697021484375 38.30462646484375 173.1197967529297 77.57881927490234 167.89517211914062 55.39605712890625 C 176.84451293945312 41.63312530517578 172.50146484375 50.64522933959961 172.7947540283203 47.83917999267578 L 173.95623779296875 85.27202606201172 C 172.7618865966797 83.7926254272461 174.787353515625 85.5886001586914 173.64344787597656 86.33135986328125 C 169.74020385742188 86.20671844482422 178.8068084716797 87.0251693725586 164.60231018066406 87.30443572998047 L 159.66226196289062 86.16925048828125 C 163.32704162597656 88.35028839111328 156.0452423095703 71.01448822021484 157.72637939453125 72.69830322265625 C 161.3186798095703 76.87543487548828 158.18846130371094 75.81128692626953 159.58648681640625 75.65564727783203 L 158.78323364257812 76.13599395751953 C 161.40948486328125 67.92466735839844 161.36032104492188 79.98135375976562 157.537109375 73.43020629882812 C 153.49993896484375 56.183074951171875 148.80166625976562 51.35565948486328 110.63053131103516 50.49993896484375 C 123.58177185058594 45.39946746826172 120.32697296142578 40.573211669921875 134.44309997558594 52.19563674926758 C 126.5023422241211 50.75699234008789 111.69235229492188 51.249629974365234 101.32183837890625 66.6957778930664 L 103.61669158935547 64.28648376464844 C 100.35784149169922 67.10525512695312 97.54478454589844 73.32884979248047 98.64106750488281 84.5507583618164 C 101.45634460449219 92.87458801269531 99.5838623046875 87.29020690917969 102.63301086425781 93.54206085205078 C 111.20008087158203 102.86949157714844 106.8891372680664 103.18669891357422 101.38701629638672 92.34498596191406 C 104.08282470703125 97.09886932373047 113.24495697021484 102.74308776855469 123.39458465576172 107.93075561523438 C 122.08068084716797 107.71788024902344 131.16326904296875 111.11363220214844 137.8144073486328 115.2229995727539 C 146.4605255126953 119.57003784179688 154.9940185546875 125.0658950805664 160.6848602294922 128.79942321777344 C 166.47384643554688 132.690673828125 172.61074829101562 137.8988037109375 175.63462829589844 141.60617065429688 C 185.46206665039062 150.0916290283203 176.47706604003906 158.39234924316406 173.6236572265625 146.82028198242188 C 183.73219299316406 147.7556610107422 178.56924438476562 145.49539184570312 181.8463897705078 150.1129608154297 C 187.3739013671875 162.85305786132812 185.476318359375 175.7371368408203 185.5074005126953 162.5363006591797 C 186.85289001464844 180.4866180419922 183.03024291992188 186.24732971191406 177.82754516601562 194.96475219726562 C 175.2798614501953 197.5088348388672 175.607177734375 199.32545471191406 163.6690216064453 208.28089904785156 L 165.1255340576172 205.784912109375 C 164.30714416503906 209.34756469726562 151.5151824951172 214.78042602539062 135.4883575439453 218.8889617919922 L 148.88461303710938 215.7987060546875 C 143.16970825195312 216.50332641601562 129.9688262939453 220.35443115234375 125.08631134033203 219.2157745361328 C 120.43803405761719 220.80320739746094 91.54457092285156 216.60675048828125 89.42665100097656 215.83604431152344 L 94.88199615478516 217.22915649414062 C 73.44811248779297 212.28941345214844 68.98461151123047 207.47305297851562 73.82687377929688 208.6056671142578 C 71.35330963134766 215.4380340576172 73.13680267333984 202.8742218017578 73.34278869628906 206.11720275878906 L 73.79345703125 189.9275360107422 L 72.45925903320312 164.74208068847656" stroke-width="1.0" fill="rgb(0, 0, 0)" opacity="0.99673903"/>
  </g>
</svg>
