<?xml version="1.0" ?>
<svg xmlns="http://www.w3.org/2000/svg" version="1.1" width="256" height="256">
  <defs/>
  <g>
    <path d="M 55.84012985229492 42.7289924621582 L 200.26158142089844 42.77947235107422 L 203.31863403320312 84.18599700927734 C 198.01443481445312 86.37687683105469 206.1051788330078 84.12289428710938 191.4761199951172 85.10993957519531 C 191.57289123535156 83.74991607666016 190.83587646484375 74.63255310058594 185.93670654296875 58.85849380493164 L 141.66639709472656 58.78267288208008 L 141.6538543701172 196.1286163330078 L 167.1044464111328 203.36485290527344 C 168.00942993164062 216.3837432861328 163.94351196289062 213.64381408691406 165.98367309570312 214.1865692138672 L 92.52326965332031 214.09579467773438 L 92.27677154541016 202.82557678222656 L 119.34703826904297 195.91192626953125 C 120.07626342773438 189.5863800048828 129.96893310546875 191.0186309814453 117.93677520751953 213.66464233398438 L 117.90267944335938 58.731040954589844 L 54.38988494873047 58.72844696044922 L 52.95762252807617 91.71664428710938 C 52.173553466796875 84.3492202758789 62.73213195800781 97.54486846923828 63.90695571899414 78.45854949951172 C 70.49163818359375 57.38738250732422 66.97550964355469 64.31260681152344 71.04292297363281 58.71246337890625 L 55.13174057006836 58.644142150878906 C 54.01002883911133 55.48141860961914 59.005794525146484 44.58668518066406 55.506736755371094 59.589881896972656 L 55.84012985229492 42.7289924621582" stroke-width="1.0" fill="rgb(0, 0, 0)" opacity="0.9962482"/>
  </g>
</svg>
