<?xml version="1.0" ?>
<svg xmlns="http://www.w3.org/2000/svg" version="1.1" width="256" height="256">
  <defs/>
  <g>
    <path d="M 156.28697204589844 49.64541244506836 C 156.2983856201172 49.628662109375 158.28536987304688 48.69718551635742 154.01370239257812 49.99656295776367 L 195.89218139648438 39.439849853515625 C 224.2315216064453 40.078216552734375 216.69955444335938 36.0261116027832 218.1787872314453 49.89265823364258 C 219.59303283691406 45.77218246459961 199.77685546875 53.76109313964844 193.7831573486328 60.63105773925781 L 193.61387634277344 146.86151123046875 C 195.29293823242188 174.6250762939453 193.03152465820312 169.8177032470703 191.25918579101562 178.1681671142578 C 185.5972900390625 192.0535888671875 178.61973571777344 198.0982666015625 173.40968322753906 203.19100952148438 C 164.1528778076172 210.7213592529297 159.5292510986328 211.05209350585938 160.0412139892578 211.45143127441406 C 149.28768920898438 215.4413299560547 137.77099609375 218.05368041992188 126.77259063720703 217.5452423095703 C 114.13121795654297 219.19699096679688 87.45411682128906 209.62139892578125 85.44929504394531 206.93472290039062 C 70.74691772460938 199.57693481445312 63.74763870239258 182.17013549804688 63.9757194519043 170.16831970214844 L 63.82035827636719 53.21659469604492 L 40.46908187866211 47.14983367919922 L 41.58707809448242 39.46632385253906 L 106.43976593017578 39.482872009277344 C 119.86493682861328 60.81810760498047 45.9034423828125 49.75269317626953 89.38021087646484 52.52417755126953 L 89.06537628173828 149.88636779785156 C 88.86116790771484 176.46299743652344 91.73587036132812 179.23794555664062 98.18888854980469 188.2626495361328 C 109.296630859375 197.35813903808594 114.84745788574219 202.98837280273438 142.07276916503906 202.0993194580078 C 135.2036590576172 202.22137451171875 156.8388671875 203.59445190429688 169.24435424804688 189.2821807861328 C 181.9160919189453 174.04510498046875 180.00079345703125 160.1756591796875 181.27542114257812 141.092529296875 L 180.6896514892578 54.44047927856445 L 157.52235412597656 49.285736083984375 C 205.98179626464844 36.4061164855957 199.1669921875 40.41225814819336 182.6900634765625 39.62153244018555 C 148.90968322753906 39.85073471069336 160.02947998046875 36.042449951171875 157.9009246826172 48.69911575317383 L 156.28697204589844 49.64541244506836" stroke-width="1.0" fill="rgb(0, 0, 0)" opacity="0.99480385"/>
  </g>
</svg>
