<?xml version="1.0" ?>
<svg xmlns="http://www.w3.org/2000/svg" version="1.1" width="256" height="256">
  <defs/>
  <g>
    <path d="M 39.018524169921875 41.39288330078125 C 40.8347282409668 36.90652847290039 46.368770599365234 43.21507263183594 40.85899353027344 39.76239776611328 L 103.504150390625 39.82063674926758 C 104.05757141113281 59.8676643371582 102.4690933227539 48.61429214477539 104.37251281738281 52.00694274902344 L 86.33309173583984 56.96904373168945 L 97.17880249023438 90.59323120117188 L 136.6998291015625 190.23590087890625 C 131.5115509033203 189.19747924804688 121.22769927978516 182.34710693359375 132.09591674804688 184.91200256347656 L 179.44810485839844 56.669620513916016 C 169.81919860839844 55.81784439086914 181.1694793701172 57.29210662841797 164.92759704589844 54.07114028930664 L 162.48696899414062 52.372440338134766 L 163.8121795654297 39.85356521606445 L 217.7143096923828 39.64908218383789 C 219.9983367919922 43.08300018310547 216.5735321044922 42.26487350463867 219.09164428710938 55.60418701171875 L 201.7572479248047 56.85851287841797 L 196.638427734375 65.87147521972656 L 134.59603881835938 223.93934631347656 L 137.85606384277344 215.29466247558594 L 120.32005310058594 215.2549591064453 L 122.34168243408203 219.7164764404297 L 57.581295013427734 58.61285400390625 C 70.74933624267578 91.92748260498047 65.12789154052734 74.37425994873047 55.20878982543945 58.116737365722656 L 37.905982971191406 52.517974853515625 L 39.018524169921875 41.39288330078125" stroke-width="1.0" fill="rgb(0, 0, 0)" opacity="0.99378157"/>
  </g>
</svg>
