<?xml version="1.0" ?>
<svg xmlns="http://www.w3.org/2000/svg" version="1.1" width="256" height="256">
  <defs/>
  <g>
    <path d="M 15.152898788452148 51.96494674682617 C 3.594057559967041 46.44843673706055 3.3479409217834473 39.128692626953125 22.746572494506836 39.982940673828125 L 44.03852462768555 40.90940475463867 C 56.18273162841797 90.72225189208984 60.433467864990234 117.07913208007812 42.75353240966797 47.78052520751953 L 79.32611083984375 175.45419311523438 L 118.28105926513672 61.59410095214844 L 138.72952270507812 61.8583869934082 L 143.23728942871094 70.31758117675781 L 176.30665588378906 177.3835906982422 L 209.56314086914062 58.041770935058594 L 227.95309448242188 61.07645034790039 L 188.099365234375 56.03200912475586 L 192.41510009765625 40.41294479370117 L 242.08653259277344 41.337623596191406 C 240.8701171875 51.60830307006836 224.85719299316406 66.08563995361328 235.92918395996094 58.95842742919922 L 230.5033721923828 62.0213623046875 L 178.71389770507812 232.56637573242188 C 181.3483123779297 224.23272705078125 179.97593688964844 228.77056884765625 183.56246948242188 216.75778198242188 L 166.0360565185547 217.1600799560547 L 174.48355102539062 245.0723876953125 L 127.40191650390625 89.00544738769531 L 83.65135955810547 223.04617309570312 L 85.70320129394531 216.64205932617188 L 65.59133911132812 216.66456604003906 L 60.705875396728516 192.9437713623047 C 85.32128143310547 214.72503662109375 80.39125061035156 208.60491943359375 68.00151062011719 216.4278106689453 L 21.900352478027344 64.7366714477539 L 15.152898788452148 51.96494674682617" stroke-width="1.0" fill="rgb(0, 0, 0)" opacity="0.99336344"/>
  </g>
</svg>
