<?xml version="1.0" ?>
<svg xmlns="http://www.w3.org/2000/svg" version="1.1" width="256" height="256">
  <defs/>
  <g>
    <path d="M 118.23494720458984 129.73233032226562 L 53.24673843383789 40.96726989746094 L 90.4728775024414 59.60212707519531 C 42.06873321533203 56.85185241699219 34.7600212097168 46.82686996459961 62.74276351928711 45.295013427734375 C 44.94710159301758 46.76140213012695 46.60223388671875 59.98977279663086 47.70748519897461 41.353721618652344 L 113.60525512695312 41.26980972290039 C 114.46663665771484 41.39734649658203 116.56370544433594 48.898990631103516 114.21430969238281 52.77582550048828 L 87.58232116699219 55.534278869628906 L 91.31378173828125 51.04189682006836 L 124.33184814453125 100.13429260253906 C 135.31333923339844 111.77696990966797 129.4315185546875 110.30122375488281 137.197265625 102.81787872314453 L 167.94732666015625 56.91780471801758 L 152.0796661376953 52.64950180053711 L 152.4447021484375 50.93406677246094 C 153.98402404785156 34.975311279296875 153.88331604003906 44.30656814575195 153.70703125 41.42597961425781 L 204.06202697753906 41.345760345458984 C 204.067138671875 61.043174743652344 208.0264892578125 50.08306884765625 187.6119384765625 58.62832260131836 L 181.6668701171875 63.7957878112793 L 139.87789916992188 126.51911163330078 L 202.4853057861328 213.82034301757812 C 220.60714721679688 212.9404754638672 205.7945556640625 215.55076599121094 212.9600372314453 212.31129455566406 C 213.55555725097656 202.77720642089844 220.38787841796875 208.0069580078125 191.139404296875 197.9049072265625 L 202.58595275878906 213.8872528076172 L 149.8520965576172 214.1942138671875 L 145.65769958496094 203.98760986328125 L 165.52284240722656 195.95849609375 L 162.93759155273438 198.07801818847656 L 119.04985046386719 137.4102325439453 C 123.06259155273438 139.58349609375 123.41571807861328 131.97328186035156 129.17083740234375 135.0758514404297 L 83.5286865234375 193.66604614257812 C 121.0033950805664 145.8989715576172 83.67023468017578 192.8253936767578 83.50971984863281 201.3195343017578 L 101.52293395996094 204.89535522460938 L 100.00605773925781 214.3651123046875 L 44.44322204589844 214.2080078125 C 43.356414794921875 200.9129638671875 43.72941970825195 207.713134765625 62.919647216796875 199.84226989746094 C 73.95716094970703 199.3046875 54.88608932495117 203.08245849609375 65.17298126220703 199.06930541992188 L 92.30074310302734 160.21127319335938 L 118.23494720458984 129.73233032226562" stroke-width="1.0" fill="rgb(1, 1, 1)" opacity="1.0"/>
  </g>
</svg>
