<?xml version="1.0" ?>
<svg xmlns="http://www.w3.org/2000/svg" version="1.1" width="256" height="256">
  <defs/>
  <g>
    <path d="M 124.26545715332031 137.279296875 L 177.18942260742188 47.01749038696289 C 209.66770935058594 54.06024169921875 162.9329071044922 52.310123443603516 157.65696716308594 50.99949645996094 C 157.80165100097656 52.95365905761719 156.99301147460938 39.780094146728516 158.11215209960938 40.16600036621094 L 208.77569580078125 40.256309509277344 L 208.79258728027344 50.516841888427734 L 189.96864318847656 57.64272689819336 L 148.474609375 125.88764190673828 C 138.7078399658203 147.48629760742188 139.40322875976562 148.89138793945312 142.38546752929688 132.1627960205078 L 142.35440063476562 197.37376403808594 C 145.5054931640625 200.96560668945312 165.2599639892578 204.22837829589844 164.3264923095703 206.5207061767578 C 164.23370361328125 219.1608123779297 165.16355895996094 215.6234588623047 152.66102600097656 215.58973693847656 L 98.59367370605469 215.70155334472656 C 94.489990234375 202.48683166503906 97.13739013671875 206.97311401367188 118.37975311279297 198.8553924560547 L 118.43766021728516 123.8689956665039 C 122.89798736572266 138.005126953125 118.61442565917969 140.2034912109375 118.17131805419922 139.4950408935547 L 64.09140014648438 48.443572998046875 L 71.44702911376953 61.368064880371094 C 60.80699157714844 42.51097869873047 43.76021194458008 59.32136917114258 48.371273040771484 40.315677642822266 L 113.6150131225586 40.1714973449707 L 114.27584838867188 50.501216888427734 L 95.42915344238281 52.432029724121094 C 102.35787963867188 52.97698974609375 92.1700210571289 47.378013610839844 101.7071533203125 67.27159118652344 L 143.51808166503906 141.56277465820312 C 140.73179626464844 132.42727661132812 142.3067169189453 140.12985229492188 136.9427947998047 142.73988342285156 L 124.26545715332031 137.279296875" stroke-width="1.0" fill="rgb(1, 1, 1)" opacity="1.0"/>
  </g>
</svg>
